<?xml version="1.0" encoding="UTF-8"?>
<svg id="Layer_1" xmlns="http://www.w3.org/2000/svg" version="1.1" viewBox="0 0 803.4 145.1">
  <!-- Generator: Adobe Illustrator 29.7.1, SVG Export Plug-In . SVG Version: 2.1.1 Build 8)  -->
  <defs>
    <style>
      .st0 {
        fill: #fff;
      }
    </style>
  </defs>
  <path class="st0" d="M298.4.3c-11.5-1.8-15.4,4.3-16.6,11.2-1.6,8.8-.2,12.1-2.7,25.2-2.5,13.2-6.1,24-8.4,32.6-.6,2.3-1.8,5.1-4.6,5.1-2.8,0-3.9-2.8-4.5-5.1-2-8.7-4.7-14.7-7.7-30.3-2.9-15.6-1.6-18.1-1.6-24.2s-4.7-13-16.1-13-16.1,6.9-16.1,13,1.3,8.6-1.6,24.2-5.6,21.6-7.7,30.3c-.5,2.3-1.6,5.1-4.5,5.1-2.8,0-3.9-2.8-4.6-5.1-2.3-8.5-5.8-19.4-8.4-32.6-2.5-13.1-1.1-16.4-2.7-25.2-1.2-6.8-5.1-12.9-16.6-11.1-13.3,2.1-15.1,12.7-12.4,20s11,51.8,16.1,76.6c2.4,11.5,4.6,23,7.3,34.4,1.6,6.6,7.8,13.7,18.9,13.7,24.8,0,18.2-12.9,20.6-22.2,1.7-6.8,4.9-15.9,6-18.7,1.8-4.9,4.3-4.9,5.6-4.9s3.8,0,5.6,4.9c1.1,2.8,4.3,11.8,6,18.7,2.3,9.2-4.2,22.2,20.6,22.2s17.4-7.1,18.9-13.7c2.7-11.4,5-22.9,7.3-34.4,5.1-24.9,13.4-69.3,16.1-76.6,2.7-7.4.8-18-12.4-20.1Z"/>
  <path class="st0" d="M789.9.3c-11.5-1.8-15.4,4.3-16.6,11.2-1.6,8.8-.2,12.1-2.7,25.2-2.5,13.2-6.1,24-8.3,32.6-.6,2.3-1.8,5.1-4.6,5.1-2.8,0-3.9-2.8-4.5-5.1-2-8.7-4.7-14.7-7.7-30.3-2.9-15.6-1.6-18.1-1.6-24.2s-4.7-13-16.1-13-16.1,6.9-16.1,13,1.3,8.6-1.6,24.2-5.7,21.6-7.7,30.3c-.5,2.3-1.6,5.1-4.5,5.1-2.8,0-3.9-2.8-4.6-5.1-2.3-8.5-5.8-19.4-8.3-32.6-2.5-13.1-1.1-16.4-2.7-25.2-1.2-6.8-5.2-12.9-16.6-11.1-13.3,2.1-15.1,12.7-12.4,20s11,51.8,16.1,76.6c2.3,11.5,4.7,23,7.3,34.4,1.5,6.6,7.8,13.7,18.9,13.7,24.8,0,18.2-12.9,20.6-22.2,1.7-6.8,5-15.9,6-18.7,1.8-4.9,4.3-4.9,5.6-4.9s3.8,0,5.6,4.9c1,2.8,4.3,11.8,6,18.7,2.3,9.2-4.2,22.2,20.6,22.2s17.3-7.1,18.9-13.7c2.7-11.4,5-22.9,7.3-34.4,5.1-24.9,13.4-69.3,16.1-76.6,2.7-7.4.8-18-12.4-20.1Z"/>
  <path class="st0" d="M614.9,114.6c-21.3,0-43.2,0-65.3-.1-21.2,0-34.3-14.2-34.3-30.1s18-17.7,18-42.4S521.9.2,481.7.2s-18.1,0-27.2.8c-7.3.6-11.3,4.3-12.6,10.4-.5,2.1-.8,4.3-.8,6.4,0,35.3,0,90.3,0,99s-4.5,27.5,16.8,27.5,14.6-18.5,14.6-27.5v-17.8c0-1.6.9-3.2,2.3-4.1,3.4-2,7.4-.9,9.4,3.6,1,2.2,5.9,15.1,12.3,25.7,6.9,11.4,20.6,20.5,41.1,20.5s81.6,0,95.4,0,22.6-3.3,22.6-15.8c0-21.9-19.5-14.3-40.8-14.3ZM502.3,46.2c-.7,4.7-5.4,9.3-10.8,10.6-2,.5-4.1.6-6.1.9-12.8.3-16.4-9.8-14-19,.9-3.5,3.2-6,6.6-7.4,6.2-2.5,12.3-1.8,18,1.4,5.2,2.9,7.2,7.6,6.4,13.5Z"/>
  <path class="st0" d="M414.6,68.7c.6-3.5,1.7-7,3-10.3,2.7-6.7,4.4-13.5,3.5-20.8-2.2-19.2-16.6-34.7-35.8-36.3-14.5-1.2-29.2-.9-43.8-.6-8.1.2-12.6,5-13.8,13-.3,1.8-.4,3.6-.4,5.4,0,34.8,0,69.5,0,104.3,0,3.1.3,6.1.8,9.2,1.2,7,5,10.8,12,11.5,7.1.7,14.2.6,23.6,1,6.6-.4,15.5-.4,24.2-1.6,13.6-1.9,23.8-9.4,29.6-21.9,6.3-13.5,5.9-27.1-.3-40.6-1.8-3.9-3.5-7.9-2.8-12.2ZM366.9,30.1c1.8-.3,3.5-.6,5.4-.6,4,0,6.7.8,9.8,1.9,5.1,2,8.3,6.9,8,11.4-.3,4.9-4.1,9.5-9.4,11.1-4.5,1.4-9.2,1.7-13.9.8-6.1-1.2-10.1-6-10.1-12.3,0-6.3,3.9-11.2,10.2-12.4ZM385.5,111.7c-6.3,4-13.2,4.6-20.3,2.7-6-1.7-8.8-6.4-8.8-14.1s5-15.1,15.1-15.2c5,0,9.6.8,13.9,3.6,8.2,5.3,8.2,17.9,0,23.1Z"/>
  <path class="st0" d="M86.4,96.9c18.9,5.6,40.6-1.7,52-17.4,5.4-7.5,8.2-15.9,9.1-25,1.1-11.4-.9-22.2-7.2-32C131.1,8.1,117.5.9,99.6.7c-18,0-32.3,8.1-41.3,23.7-5.5,9.6-6.9,20.1-6,31,1.6,19.4,14.9,35.9,34,41.6ZM89.5,38.3c7.4-4.7,15.6-4.4,22.1.4s8,15.6-.6,22.8c-6.9,5.3-17.4,4-23.3-1.4-6.7-6.1-5.6-16.9,1.8-21.7Z"/>
  <path class="st0" d="M582.5,96.9c18.9,5.6,40.6-1.7,52-17.4,5.4-7.5,8.2-15.9,9.1-25,1.1-11.4-.9-22.2-7.2-32-9.2-14.4-23.1-21.1-40.7-21.8-18,.8-32.3,8.1-41.3,23.7-5.5,9.6-6.9,20.1-6,31,1.6,19.5,14.9,35.9,34,41.6ZM585.7,38.3c7.4-4.7,15.5-4.4,22.1.4s8,15.6-.6,22.8c-6.9,5.3-17.4,4-23.3-1.4-6.7-6.1-5.6-16.9,1.8-21.7Z"/>
  <path class="st0" d="M120.4,114.4c-16.1,0-53.2,0-60.9,0-.2,0-.4,0-.7,0-16,0-26.2-3-26.5-26.7v-42.8C32.3,26.2,41.3.1,17,.1S.2,18.3.2,30.1s-.1,54.1,0,89.4c-.2,10.7,9.6,24.6,26.4,25.1h111.4c13.7,0,21.3-2.9,21.3-15.8,0-20.7-20.2-14.5-38.9-14.5Z"/>
</svg>